<svg width="266" height="241" viewBox="0 0 266 241" fill="none" xmlns="http://www.w3.org/2000/svg">
<path d="M159 7.00022C159.621 7.19358 160.242 7.38694 160.882 7.58616C186.575 15.7756 207.631 33.3299 221.009 56.6833C222.105 58.5982 222.105 58.5982 224 61.0002C231.917 61.0002 238.431 55.6253 244.25 50.6252C247.437 47.9844 248.715 47.0554 252.875 46.2502C256.706 47.1697 257.724 47.7804 260 51.0002C260.612 54.4427 260.568 57.8246 260.5 61.3127C260.487 62.2995 260.474 63.2863 260.461 64.303C260.076 78.3429 255.689 89.8063 249 102C250.104 101.971 251.209 101.941 252.347 101.91C256 102 256 102 258.437 103.438C262.086 109.422 259.891 116.442 258.375 122.875C255.072 135.744 248.377 146.914 237.312 154.625C233.218 157.961 232.056 162.665 230.4 167.484C221.55 192.813 201.388 216.168 177.235 227.979C174.187 229.4 171.107 230.711 168 232C167.02 232.411 166.04 232.823 165.031 233.246C154.186 237.5 143.188 238.37 131.625 238.313C130.437 238.308 129.25 238.303 128.027 238.298C100.494 237.929 76.4318 225.08 57.3169 205.737C46.3387 194.192 37.3083 180.045 32.7498 164.75C30.3897 157.614 26.4635 154.113 20.8748 149.446C9.95323 140.156 5.33888 126.219 3.67944 112.317C3.50619 108.8 3.71474 106.468 5.56226 103.438C8.79714 101.53 11.3037 101.901 14.9998 102C14.5408 101.164 14.0819 100.327 13.6091 99.4651C7.0184 86.9621 3.68377 75.4874 3.49976 61.3127C3.48115 60.3556 3.46253 59.3985 3.44336 58.4123C3.47987 54.4393 3.51826 51.7992 5.59351 48.3557C9.02734 46.4214 11.1099 46.4236 14.9998 47.0002C17.3195 48.4767 19.1547 49.8339 21.1873 51.6252C27.0842 56.5123 32.9712 59.8849 39.9998 63.0002C40.2692 62.2784 40.5386 61.5565 40.8162 60.8127C50.4444 37.9338 72.8529 19.6964 95.209 10.2043C114.537 2.40171 139.011 0.642381 159 7.00022ZM63.9998 52.0002C58.9151 58.136 55.2458 65.0066 51.6626 72.0876C49.2037 76.8982 49.2037 76.8982 46.9998 78.0002C39.9654 78.681 35.2901 77.2175 28.8943 74.2893C25.9751 72.9892 23.0441 71.9654 19.9998 71.0002C19.4532 82.4273 25.7141 92.6189 32.9998 101C34.1151 101.974 35.257 102.919 36.4373 103.813C38.9998 106 38.9998 106 39.9998 109.063C39.9998 112.172 39.9142 113.564 37.9998 116C34.0747 117.945 30.5323 118.362 26.1873 118.625C25.0258 118.7 23.8644 118.775 22.6677 118.852C21.3471 118.925 21.3471 118.925 19.9998 119C23.6716 131.202 30.0909 139.6 40.574 146.758C43.597 149.552 44.1238 151.608 45.1873 155.563C49.4541 169.831 56.807 183.137 66.9998 194C67.7448 194.836 68.4899 195.671 69.2576 196.531C79.4294 207.408 92.0052 215.064 106 220C106.952 220.339 107.905 220.678 108.886 221.028C116.407 223.206 123.839 223.273 131.625 223.313C132.674 223.318 133.723 223.324 134.804 223.33C144.88 223.236 154.144 221.837 163.437 217.875C164.162 217.57 164.888 217.264 165.635 216.949C190.887 205.924 207.808 183.965 218 159C218.446 157.216 218.868 155.425 219.25 153.625C220.737 147.985 224.783 145.468 229.281 142.071C236.572 136.518 240.422 129.361 244 121C244 120.34 244 119.68 244 119C243.036 118.951 242.071 118.902 241.078 118.852C239.815 118.777 238.551 118.702 237.25 118.625C235.997 118.556 234.744 118.486 233.453 118.414C230.369 118.045 228.558 117.681 226 116C224.224 113.632 224.007 112.152 223.875 109.188C225.094 105.734 225.872 105.043 228.625 102.813C236.623 96.2905 241.409 86.8938 244 77.0002C244.342 73.5384 244.342 73.5384 244 71.0002C239.914 72.2955 236.081 73.8424 232.187 75.6252C226.735 77.9174 222.876 78.7464 217 78.0002C213.912 75.6902 212.576 72.453 210.875 69.0627C198.984 46.6939 180.798 30.5643 157 22.0002C156.057 21.6599 155.115 21.3196 154.144 20.969C119.613 10.9033 86.8299 26.5571 63.9998 52.0002Z" fill="#FBFBFB"/>
<path d="M117.673 64.6524C121.051 66.6082 124.065 68.8773 127.028 71.4141C128.943 72.9535 130.769 73.9915 133.001 75C133.462 74.5527 133.924 74.1054 134.399 73.6446C144.983 63.8349 154.87 61.4323 168.887 61.6563C180.559 62.1694 189.836 68.4312 197.688 76.6875C205.904 86.445 207.893 97.5684 207.223 109.918C206.025 121.143 199.095 130.568 191.001 138C190.341 138 189.681 138 189.001 138C189.022 138.664 189.043 139.328 189.064 140.013C189.735 164.488 189.735 164.488 185.001 174C184.577 174.924 184.152 175.849 183.716 176.801C176.182 191.973 163.624 201.111 148.001 207C132.607 210.562 116.108 209.101 102.548 200.98C88.8559 192.313 81.4308 180.686 75.7819 165.785C74.6625 160.362 74.7905 155.083 74.8757 149.563C74.8847 148.449 74.8937 147.336 74.903 146.189C74.9265 143.459 74.9593 140.73 75.0007 138C74.376 137.701 73.7513 137.403 73.1076 137.095C64.9837 132.872 60.1815 122.384 57.3562 114.113C55.2935 101.851 57.2124 90.9191 63.6882 80.3125C75.7722 63.3828 98.1755 56.0994 117.673 64.6524ZM77.0007 87C72.3544 94.2975 70.9553 101.406 72.0007 110C74.9704 118.814 79.5271 125.263 87.8757 129.438C90.0007 131 90.0007 131 90.8757 134.5C91.0007 138 91.0007 138 90.0007 141C88.6511 154.898 90.001 166.211 98.1882 177.813C102.145 182.54 106.707 185.89 112.001 189C113.07 189.654 113.07 189.654 114.161 190.32C123.319 194.94 135.87 194.485 145.645 192.117C156.536 187.895 164.126 180.999 170.001 171C170.436 170.287 170.872 169.574 171.321 168.84C176.065 159.435 174.871 146.697 173.391 136.516C173.001 133 173.001 133 174.438 130.875C175.904 129.802 177.379 128.74 178.876 127.711C185.529 122.998 189.331 117.729 192.001 110C193.391 100.787 191.142 93.6607 186.001 86C181.161 80.2801 175.297 77.3876 167.884 76.7188C157.792 76.4391 151.293 78.0771 143.829 84.9531C141.308 87.7752 139.597 90.8072 137.911 94.1797C137.001 96 137.001 96 136.001 97C130.973 97.8522 130.973 97.8522 128.001 97C125.476 94.312 123.818 91.1915 122.001 88C118.026 82.2266 113.004 78.3202 106.001 77C93.8129 76.1617 85.3456 77.6559 77.0007 87Z" fill="#FBFBFB"/>
<path d="M120.376 130.75C125.182 132.407 127.739 135.203 131.001 139C134.01 137.656 135.999 136.138 138.313 133.812C141.181 131.29 141.708 131.01 145.751 130.875C149.001 132 149.001 132 151.001 133.625C152.474 137.124 151.91 139.348 151.001 143C148.532 145.352 148.532 145.352 145.501 147.625C141.418 151.081 139.696 153.892 139.157 159.273C138.936 163.823 139.008 168.359 139.259 172.906C139.001 175 139.001 175 137.614 176.756C135.614 178.298 134.505 178.403 132.001 178.375C130.98 178.387 130.98 178.387 129.938 178.398C127.395 177.876 126.6 177.026 125.001 175C124.743 172.906 124.743 172.906 124.876 170.5C125.604 159.822 125.604 159.822 121.532 150.414C119.611 148.499 117.656 146.992 115.469 145.352C113.001 143 113.001 143 112.032 139.398C112.001 136 112.001 136 114.001 133C117.001 131 117.001 131 120.376 130.75Z" fill="#FBFBFB"/>
<path d="M167.999 92.0001C170.194 93.5626 170.194 93.5626 171.999 96.0001C172.46 99.5314 172.46 99.5314 172.374 103.5C172.361 104.81 172.348 106.119 172.335 107.469C172.035 110.625 171.777 112.427 169.999 115C166.949 116.525 164.357 116.236 160.999 116C158.896 114.457 158.159 113.319 156.999 111C156.822 108.525 156.722 106.103 156.687 103.625C156.658 102.952 156.629 102.279 156.599 101.586C156.555 98.1792 156.757 96.3286 158.8 93.5548C162.011 91.285 164.164 91.4523 167.999 92.0001Z" fill="#FBFBFB"/>
<path d="M102.999 92.0001C105.194 93.5626 105.194 93.5626 106.999 96.0001C107.46 99.5314 107.46 99.5314 107.374 103.5C107.361 104.81 107.348 106.119 107.335 107.469C107.035 110.625 106.777 112.427 104.999 115C101.949 116.525 99.3568 116.236 95.9991 116C93.8956 114.457 93.1586 113.319 91.9991 111C91.8223 108.525 91.7218 106.103 91.6866 103.625C91.6576 102.952 91.6286 102.279 91.5987 101.586C91.5552 98.1792 91.7573 96.3286 93.7999 93.5548C97.0107 91.285 99.1645 91.4523 102.999 92.0001Z" fill="#FBFBFB"/>
</svg>
